<?xml version="1.0" encoding="UTF-8"?>
<svg width="35px" height="35px" viewBox="0 0 35 35" version="1.1" xmlns="http://www.w3.org/2000/svg" xmlns:xlink="http://www.w3.org/1999/xlink">
    <!-- Generator: sketchtool 49.3 (51167) - http://www.bohemiancoding.com/sketch -->
    <title>19C2900E-A7A3-45EA-87A4-3EC65664B918-color</title>
    <desc>Created with sketchtool.</desc>
    <defs></defs>
    <g id="Page-1" stroke="none" stroke-width="1" fill="none" fill-rule="evenodd">
        <g id="home" transform="translate(-242.000000, -685.000000)" fill="#EC4989">
            <path d="M267.836437,714.876423 C267.68424,713.975688 266.888292,709.59129 264.928244,704.209503 C269.751238,703.438326 273.928423,704.760638 274.23693,704.861405 C273.572612,709.023704 271.18888,712.612247 267.836437,714.876423 L267.836437,714.876423 L267.836437,714.876423 Z M259.490293,717.426448 C255.87459,717.426448 252.559168,716.141153 249.973879,714.002422 C250.171323,714.162827 250.309123,714.263594 250.309123,714.263594 C250.309123,714.263594 253.172069,708.020146 262.030334,704.933382 C262.063242,704.921043 262.098206,704.912817 262.131113,704.902534 C264.233075,710.362467 265.098951,714.936061 265.321076,716.24192 C263.529679,717.002815 261.55729,717.426448 259.490293,717.426448 L259.490293,717.426448 L259.490293,717.426448 Z M244.552382,702.488237 C244.552382,702.329888 244.560609,702.173596 244.564722,702.017304 C244.830038,702.023474 252.209527,702.190048 259.899579,699.888856 C260.327376,700.72584 260.736662,701.579276 261.110983,702.428599 C260.913539,702.482067 260.718151,702.541705 260.522763,702.607512 C252.462502,705.211005 248.373756,712.462125 248.373756,712.462125 C248.373756,712.462125 248.379926,712.468294 248.379926,712.470351 C246.000308,709.823672 244.552382,706.325613 244.552382,702.488237 L244.552382,702.488237 L244.552382,702.488237 Z M253.116537,688.983386 C253.316039,689.248671 256.078205,692.993506 258.663494,697.587664 C251.491734,699.494014 245.266061,699.417924 244.873229,699.411755 C245.841941,694.784693 248.949636,690.949373 253.116537,688.983386 L253.116537,688.983386 L253.116537,688.983386 Z M255.911611,687.988054 C255.911611,687.99011 255.909555,687.992167 255.909555,687.992167 C255.909555,687.992167 255.891044,687.996279 255.864307,688.000392 C255.880761,687.996279 255.895158,687.994223 255.911611,687.988054 L255.911611,687.988054 L255.911611,687.988054 Z M269.354292,691.282521 C269.317271,691.338046 267.190629,694.576989 261.55112,696.688986 C258.998739,691.998174 256.193381,688.271847 255.969199,687.975715 C257.098335,687.702204 258.276832,687.554138 259.490293,687.554138 C263.270533,687.554138 266.723755,688.964878 269.354292,691.282521 L269.354292,691.282521 L269.354292,691.282521 Z M274.422034,702.340171 C274.206079,702.292872 269.150677,701.204998 264.019177,701.85073 C263.912227,701.595728 263.807335,701.338669 263.696273,701.08161 C263.385709,700.349506 263.050464,699.625628 262.70288,698.914088 C268.601535,696.50596 270.995549,693.044918 271.024343,693.003788 C273.118078,695.547644 274.38707,698.79687 274.422034,702.340171 L274.422034,702.340171 L274.422034,702.340171 Z M276.624775,698.969613 C276.394423,697.84678 276.048895,696.738341 275.602588,695.681315 C275.166565,694.644853 274.621536,693.645408 273.990125,692.711769 C273.36694,691.786357 272.64709,690.914413 271.857312,690.124728 C271.065478,689.332986 270.195488,688.615277 269.26791,687.99011 C268.334162,687.356717 267.334599,686.815865 266.298015,686.37578 C265.240865,685.931582 264.134353,685.586094 263.011387,685.357826 C261.859627,685.121332 260.67496,685 259.490293,685 C258.303569,685 257.118902,685.121332 255.967143,685.357826 C254.844177,685.586094 253.737665,685.931582 252.680514,686.37578 C251.64393,686.815865 250.644368,687.356717 249.708563,687.99011 C248.783042,688.615277 247.913052,689.332986 247.121217,690.124728 C246.331439,690.914413 245.613646,691.786357 244.988405,692.711769 C244.356994,693.645408 243.811965,694.644853 243.375941,695.681315 C242.927578,696.738341 242.584107,697.84678 242.353755,698.969613 C242.119289,700.119181 242,701.303709 242,702.488237 C242,703.676877 242.119289,704.861405 242.353755,706.013029 C242.584107,707.135863 242.927578,708.242245 243.375941,709.297215 C243.811965,710.333677 244.356994,711.337235 244.988405,712.270873 C245.613646,713.196285 246.331439,714.064116 247.121217,714.857915 C247.913052,715.6476 248.783042,716.363252 249.708563,716.990476 C250.644368,717.621813 251.64393,718.164721 252.680514,718.60275 C253.737665,719.051061 254.844177,719.392435 255.967143,719.620703 C257.118902,719.859254 258.303569,719.978529 259.490293,719.978529 C260.67496,719.978529 261.859627,719.859254 263.011387,719.620703 C264.134353,719.392435 265.240865,719.051061 266.298015,718.60275 C267.334599,718.164721 268.334162,717.621813 269.26791,716.990476 C270.195488,716.363252 271.065478,715.6476 271.857312,714.857915 C272.64709,714.064116 273.36694,713.196285 273.990125,712.270873 C274.621536,711.337235 275.166565,710.333677 275.602588,709.297215 C276.048895,708.242245 276.394423,707.135863 276.624775,706.013029 C276.85924,704.861405 276.978529,703.676877 276.978529,702.488237 C276.978529,701.303709 276.85924,700.119181 276.624775,698.969613 L276.624775,698.969613 L276.624775,698.969613 Z" id="Dribbble"></path>
        </g>
    </g>
</svg>