<?xml version="1.0" encoding="UTF-8"?>
<svg width="34px" height="31px" viewBox="0 0 34 31" version="1.1" xmlns="http://www.w3.org/2000/svg" xmlns:xlink="http://www.w3.org/1999/xlink">
    <!-- Generator: sketchtool 49.3 (51167) - http://www.bohemiancoding.com/sketch -->
    <title>CD72AC54-9D9F-4161-A9C3-73D3E937B744-color</title>
    <desc>Created with sketchtool.</desc>
    <defs></defs>
    <g id="Page-1" stroke="none" stroke-width="1" fill="none" fill-rule="evenodd">
        <g id="home" transform="translate(-469.000000, -685.000000)" fill="#007EBB">
            <path d="M502.457724,715.416113 L495.06311,715.416113 L495.06311,704.723633 C495.06311,701.924891 493.906411,700.014267 491.362853,700.014267 C489.417316,700.014267 488.33537,701.303597 487.831773,702.546184 C487.642924,702.992191 487.672431,703.613485 487.672431,704.234778 L487.672431,715.416113 L480.346669,715.416113 C480.346669,715.416113 480.441094,696.475426 480.346669,694.753723 L487.672431,694.753723 L487.672431,697.996524 C488.10521,696.578651 490.446149,694.555065 494.181816,694.555065 C498.816482,694.555065 502.457724,697.527146 502.457724,703.927053 L502.457724,715.416113 L502.457724,715.416113 Z M472.938286,692.16922 L472.891073,692.16922 C470.530463,692.16922 469,690.589693 469,688.587531 C469,686.546417 470.575708,685 472.983531,685 C475.389387,685 476.868703,686.542522 476.915915,688.581689 C476.915915,690.583851 475.389387,692.16922 472.938286,692.16922 L472.938286,692.16922 L472.938286,692.16922 Z M469.843918,694.753723 L476.365106,694.753723 L476.365106,715.416113 L469.843918,715.416113 L469.843918,694.753723 L469.843918,694.753723 Z" id="LinkedIn"></path>
        </g>
    </g>
</svg>