<?xml version="1.0" encoding="UTF-8"?>
<svg width="36px" height="31px" viewBox="0 0 36 31" version="1.1" xmlns="http://www.w3.org/2000/svg" xmlns:xlink="http://www.w3.org/1999/xlink">
    <!-- Generator: sketchtool 49.3 (51167) - http://www.bohemiancoding.com/sketch -->
    <title>681243F6-4B14-4FD6-A0E6-34CA742B3F9E-color</title>
    <desc>Created with sketchtool.</desc>
    <defs></defs>
    <g id="Page-1" stroke="none" stroke-width="1" fill="none" fill-rule="evenodd">
        <g id="home" transform="translate(-393.000000, -686.000000)">
            <g id="Medium" transform="translate(393.000000, 686.000000)">
                <path d="M24.8895849,0.368555556 C24.3482264,0.0940333333 23.9053585,0.371655556 23.9053585,0.985455556 L23.9053585,25.4027778 L33.7846415,30.4127222 C34.8717736,30.9638333 35.7530943,30.5780556 35.7530943,29.5509222 L35.7530943,6.03776667 C35.7530943,5.9396 35.6980755,5.84935556 35.6114717,5.80526667 L24.8895849,0.368555556" id="Fill-1" fill="#00FC87"></path>
                <path d="M12.0579623,19.3949778 L23.3286792,0.819777778 C23.6458868,0.296911111 24.3482264,0.0940333333 24.8895849,0.368555556 L35.6236981,5.81146667 C35.6933208,5.84694444 35.7181132,5.93512222 35.6773585,6.00228889 L23.9053585,25.4027778 L12.0579623,19.3949778" id="Fill-2" fill="#00E468"></path>
                <path d="M1.85060377,0.701288889 C0.948226415,0.243522222 0.642566038,0.582111111 1.17135849,1.45355556 L12.0579623,19.3949778 L23.9053585,25.4027778 L12.083434,5.91927778 C12.0667925,5.89172222 12.0426792,5.86967778 12.0141509,5.85521111 L1.85060377,0.701288889" id="Fill-3" fill="#00C860"></path>
                <path d="M12.0579623,29.5509222 C12.0579623,30.5739222 11.3196226,31.0365111 10.4175849,30.5790889 L1.19445283,25.9018778 C0.65309434,25.6273556 0.210226415,24.9005778 0.210226415,24.2867778 L0.210226415,1.35745556 C0.210226415,0.539055556 0.800830189,0.168777778 1.5225283,0.534922222 L11.9941132,5.84487778 C12.0331698,5.86485556 12.0579623,5.90515556 12.0579623,5.94924444 L12.0579623,29.5509222" id="Fill-4" fill="#00AC68"></path>
            </g>
        </g>
    </g>
</svg>